<svg width="38" height="38" viewBox="0 0 38 38" fill="none" xmlns="http://www.w3.org/2000/svg">
<circle cx="19" cy="19" r="19" fill="#76ca6f70"/>
<path d="M25.6666 26.5V24.8333C25.6666 23.9493 25.3154 23.1014 24.6903 22.4763C24.0652 21.8512 23.2173 21.5 22.3333 21.5H15.6666C14.7825 21.5 13.9347 21.8512 13.3096 22.4763C12.6844 23.1014 12.3333 23.9493 12.3333 24.8333V26.5" stroke="#1B3747" stroke-width="2" stroke-linecap="round" stroke-linejoin="round"/>
<path d="M19.0001 18.1667C20.841 18.1667 22.3334 16.6743 22.3334 14.8333C22.3334 12.9924 20.841 11.5 19.0001 11.5C17.1591 11.5 15.6667 12.9924 15.6667 14.8333C15.6667 16.6743 17.1591 18.1667 19.0001 18.1667Z" stroke="#1B3747" stroke-width="2" stroke-linecap="round" stroke-linejoin="round"/>
</svg>
