<svg width="129" height="17" viewBox="0 0 129 17" fill="none" xmlns="http://www.w3.org/2000/svg">
<path d="M8.59003 17C13.3342 17 17.1801 13.1944 17.1801 8.5C17.1801 3.80558 13.3342 0 8.59003 0C3.84589 0 0 3.80558 0 8.5C0 13.1944 3.84589 17 8.59003 17Z" fill="url(#paint0_linear_2_741)"/>
<path d="M3.88459 3.93179C3.8634 3.9439 3.85034 3.96627 3.85034 3.99048V6.94366C3.85034 6.96787 3.8634 6.99025 3.88459 7.00235L6.46886 8.47978C6.49007 8.4919 6.51619 8.4919 6.53741 8.4798L9.12342 7.00235C9.14464 6.99025 9.15769 6.96785 9.15769 6.94364V3.9905C9.15769 3.96627 9.14464 3.9439 9.12342 3.93179L6.53741 2.45435C6.51619 2.44224 6.49007 2.44224 6.46886 2.45436L3.88459 3.93179Z" fill="#76CA6F"/>
<path d="M9.83147 4.15076C9.82087 4.15681 9.81435 4.16801 9.81435 4.18012V5.82082C9.81435 5.83293 9.82087 5.84411 9.83147 5.85018L11.2672 6.67101C11.2778 6.67706 11.2909 6.67706 11.3015 6.67101L12.7382 5.85018C12.7489 5.84411 12.7554 5.83293 12.7554 5.82081V4.18012C12.7554 4.16801 12.7489 4.15681 12.7382 4.15076L11.3015 3.32993C11.2909 3.32386 11.2778 3.32386 11.2672 3.32993L9.83147 4.15076Z" fill="#76CA6F" fill-opacity="0.8"/>
<path d="M12.7649 6.65004C12.757 6.65457 12.7521 6.66297 12.7521 6.67205V7.47532C12.7521 7.48441 12.757 7.4928 12.7649 7.49735L13.4679 7.8992C13.4758 7.90375 13.4856 7.90375 13.4936 7.89922L14.197 7.49735C14.205 7.4928 14.2099 7.48439 14.2099 7.47532V6.67205C14.2099 6.66297 14.205 6.65457 14.197 6.65004L13.4936 6.24816C13.4856 6.24361 13.4758 6.24361 13.4679 6.24816L12.7649 6.65004Z" fill="#76CA6F" fill-opacity="0.5"/>
<path d="M8.46906 12.5414C8.45847 12.5474 8.45194 12.5586 8.45194 12.5707V13.7259C8.45194 13.738 8.45847 13.7492 8.46906 13.7553L9.47992 14.3332C9.49054 14.3392 9.50359 14.3392 9.5142 14.3332L10.5258 13.7553C10.5364 13.7492 10.5429 13.738 10.5429 13.7259V12.5707C10.5429 12.5586 10.5364 12.5474 10.5258 12.5414L9.5142 11.9635C9.50359 11.9574 9.49054 11.9574 9.47992 11.9635L8.46906 12.5414Z" fill="#76CA6F" fill-opacity="0.4"/>
<path d="M8.35969 8.14516C8.34114 8.15576 8.32973 8.17534 8.32973 8.19653V10.6553C8.32973 10.6765 8.34114 10.6961 8.35969 10.7067L10.5113 11.9368C10.5299 11.9474 10.5528 11.9474 10.5713 11.9368L12.7245 10.7067C12.743 10.6961 12.7544 10.6765 12.7544 10.6553V8.19653C12.7544 8.17534 12.743 8.15576 12.7245 8.14516L10.5713 6.91504C10.5528 6.90443 10.5299 6.90445 10.5113 6.91505L8.35969 8.14516Z" fill="#76CA6F" fill-opacity="0.6"/>
<path d="M123.855 4.96829C124.587 4.96829 125.238 5.10964 125.809 5.39233C126.392 5.67502 126.849 6.11038 127.18 6.69838C127.512 7.27508 127.678 8.02139 127.678 8.93732V14.1276H125.535V9.2087C125.535 8.40586 125.341 7.80655 124.952 7.41076C124.575 7.015 124.044 6.81712 123.358 6.81712C122.855 6.81712 122.409 6.91889 122.021 7.12242C121.632 7.32597 121.33 7.63127 121.113 8.03835C120.907 8.43412 120.804 8.93732 120.804 9.54795V14.1276H118.661V1.54204H120.804V7.51254L120.341 6.76623C120.661 6.18953 121.124 5.74852 121.73 5.44322C122.347 5.1266 123.055 4.96829 123.855 4.96829Z" fill="#1B3747"/>
<path d="M115.178 14.2493C114.173 14.2493 113.396 13.9949 112.847 13.4861C112.299 12.9659 112.024 12.2026 112.024 11.1963V3.07162H114.167V11.1454C114.167 11.5751 114.276 11.9086 114.493 12.1461C114.721 12.3836 115.036 12.5023 115.436 12.5023C115.916 12.5023 116.315 12.3779 116.635 12.1291L117.235 13.6387C116.984 13.8423 116.675 13.9949 116.31 14.0967C115.944 14.1985 115.567 14.2493 115.178 14.2493ZM110.516 6.8371V5.14094H116.618V6.8371H110.516Z" fill="#1B3747"/>
<path d="M103.768 14.13V5.07246H105.808V7.56581L105.568 6.83647C105.843 6.22584 106.271 5.76223 106.854 5.44561C107.448 5.12899 108.185 4.97068 109.065 4.97068V6.98911C108.974 6.9665 108.888 6.95519 108.808 6.95519C108.728 6.94389 108.648 6.93822 108.568 6.93822C107.757 6.93822 107.111 7.1757 106.631 7.65063C106.151 8.11424 105.911 8.80968 105.911 9.73691V14.13H103.768Z" fill="#1B3747"/>
<path d="M100.197 14.13V12.2981L100.077 11.908V8.70224C100.077 8.08031 99.8885 7.59974 99.5113 7.26051C99.1342 6.90997 98.5629 6.73469 97.7973 6.73469C97.2831 6.73469 96.7744 6.81384 96.2717 6.97215C95.7804 7.13046 95.3632 7.35097 95.0203 7.63366L94.1805 6.09014C94.6718 5.71699 95.2546 5.43996 95.9288 5.25902C96.6145 5.06679 97.323 4.97068 98.0544 4.97068C99.38 4.97068 100.403 5.2873 101.123 5.92054C101.854 6.54246 102.22 7.50928 102.22 8.82097V14.13H100.197ZM97.3173 14.2487C96.6317 14.2487 96.0317 14.1356 95.5174 13.9095C95.0032 13.672 94.6032 13.3497 94.3177 12.9427C94.0434 12.5243 93.9063 12.055 93.9063 11.5348C93.9063 11.026 94.0263 10.568 94.2663 10.1609C94.5175 9.75387 94.9233 9.4316 95.4831 9.19413C96.0432 8.95667 96.7859 8.83794 97.7116 8.83794H100.368V10.2458H97.8659C97.1344 10.2458 96.6431 10.3645 96.3917 10.6019C96.1402 10.8281 96.0145 11.1108 96.0145 11.45C96.0145 11.8345 96.1688 12.1398 96.4774 12.366C96.7859 12.5921 97.2145 12.7052 97.763 12.7052C98.2886 12.7052 98.7573 12.5865 99.1685 12.349C99.5914 12.1115 99.8943 11.761 100.077 11.2974L100.437 12.5695C100.231 13.101 99.86 13.5137 99.3228 13.8077C98.7972 14.1017 98.1287 14.2487 97.3173 14.2487Z" fill="#1B3747"/>
<path d="M88.7925 14.2487C87.7755 14.2487 86.8841 14.0508 86.1185 13.655C85.3643 13.248 84.7756 12.6939 84.3529 11.9928C83.9415 11.2917 83.7357 10.4945 83.7357 9.60121C83.7357 8.69659 83.9358 7.8994 84.3357 7.20962C84.7471 6.50854 85.307 5.96011 86.0156 5.56435C86.7354 5.16856 87.5526 4.97068 88.4668 4.97068C89.3582 4.97068 90.1523 5.16292 90.8493 5.54738C91.5465 5.93183 92.0951 6.47461 92.495 7.1757C92.8949 7.87678 93.0949 8.70226 93.0949 9.65209C93.0949 9.74255 93.0893 9.84433 93.0778 9.95742C93.0778 10.0705 93.0722 10.1779 93.0607 10.2797H85.4328V8.87186H91.9293L91.0893 9.31287C91.1008 8.79272 90.9923 8.33475 90.7636 7.93897C90.5351 7.5432 90.2209 7.23223 89.821 7.00607C89.4324 6.77993 88.981 6.66684 88.4668 6.66684C87.941 6.66684 87.4784 6.77993 87.0783 7.00607C86.6898 7.23223 86.3813 7.54885 86.1528 7.95593C85.9356 8.35171 85.8271 8.82097 85.8271 9.36375V9.70298C85.8271 10.2458 85.9527 10.7263 86.2042 11.1447C86.4555 11.5631 86.8098 11.8854 87.2668 12.1115C87.724 12.3377 88.2496 12.4508 88.8439 12.4508C89.3582 12.4508 89.821 12.3716 90.2324 12.2133C90.6436 12.055 91.0095 11.8062 91.3293 11.467L92.4778 12.773C92.0664 13.248 91.5465 13.6155 90.9179 13.8756C90.301 14.1243 89.5923 14.2487 88.7925 14.2487Z" fill="#1B3747"/>
<path d="M80.7567 12.3388C80.6003 12.4294 80.5041 12.5967 80.5041 12.7777V13.4214C80.5041 13.6024 80.6003 13.7698 80.7567 13.8603L81.3125 14.1822C81.4691 14.2729 81.662 14.2729 81.8184 14.1823L82.3747 13.8603C82.5311 13.7697 82.6276 13.6024 82.6276 13.4213V12.7778C82.6276 12.5967 82.5311 12.4294 82.3747 12.3388L81.8184 12.0168C81.662 11.9262 81.4691 11.9262 81.3125 12.0169L80.7567 12.3388Z" fill="#1B3747"/>
<path d="M74.7432 14.2463C73.9661 14.2463 73.2746 14.0767 72.669 13.7375C72.0634 13.3982 71.5834 12.8894 71.2292 12.2109C70.8864 11.5212 70.715 10.6504 70.715 9.59883C70.715 8.53589 70.8921 7.6652 71.2464 6.98674C71.612 6.30826 72.0976 5.80508 72.7033 5.47714C73.3204 5.13791 74.0004 4.96829 74.7432 4.96829C75.6459 4.96829 76.44 5.16052 77.1257 5.54499C77.8229 5.92946 78.3715 6.46657 78.7714 7.15635C79.1828 7.84612 79.3885 8.66027 79.3885 9.59883C79.3885 10.5374 79.1828 11.3515 78.7714 12.0413C78.3715 12.7311 77.8229 13.2739 77.1257 13.6696C76.44 14.0541 75.6459 14.2463 74.7432 14.2463ZM69.6693 14.1276V1.54204H71.8119V7.17331L71.6405 9.58187L71.709 11.9904V14.1276H69.6693ZM74.5032 12.4314C75.0174 12.4314 75.4744 12.3184 75.8746 12.0922C76.2858 11.866 76.6115 11.5381 76.8515 11.1084C77.0914 10.6787 77.2114 10.1755 77.2114 9.59883C77.2114 9.01082 77.0914 8.50763 76.8515 8.08924C76.6115 7.65955 76.2858 7.33162 75.8746 7.10546C75.4744 6.87932 75.0174 6.76623 74.5032 6.76623C73.9889 6.76623 73.5261 6.87932 73.1147 7.10546C72.7033 7.33162 72.3776 7.65955 72.1376 8.08924C71.8976 8.50763 71.7776 9.01082 71.7776 9.59883C71.7776 10.1755 71.8976 10.6787 72.1376 11.1084C72.3776 11.5381 72.7033 11.866 73.1147 12.0922C73.5261 12.3184 73.9889 12.4314 74.5032 12.4314Z" fill="#1B3747"/>
<path d="M63.2404 14.13V5.07246H65.2802V7.56581L65.0402 6.83647C65.3144 6.22584 65.743 5.76223 66.3258 5.44561C66.9202 5.12899 67.6571 4.97068 68.5372 4.97068V6.98911C68.4456 6.9665 68.3599 6.95519 68.28 6.95519C68.2 6.94389 68.1199 6.93822 68.04 6.93822C67.2287 6.93822 66.583 7.1757 66.103 7.65063C65.623 8.11424 65.383 8.80968 65.383 9.73691V14.13H63.2404Z" fill="#1B3747"/>
<path d="M59.8301 14.13V12.2981L59.7102 11.908V8.70224C59.7102 8.08031 59.5216 7.59974 59.1445 7.26051C58.7675 6.90997 58.196 6.73469 57.4304 6.73469C56.9162 6.73469 56.4076 6.81384 55.9048 6.97215C55.4135 7.13046 54.9963 7.35097 54.6534 7.63366L53.8137 6.09014C54.3049 5.71699 54.8878 5.43996 55.562 5.25902C56.2476 5.06679 56.9561 4.97068 57.6876 4.97068C59.0132 4.97068 60.0359 5.2873 60.7558 5.92054C61.4873 6.54246 61.8529 7.50928 61.8529 8.82097V14.13H59.8301ZM56.9505 14.2487C56.2648 14.2487 55.6648 14.1356 55.1506 13.9095C54.6363 13.672 54.2364 13.3497 53.9508 12.9427C53.6765 12.5243 53.5394 12.055 53.5394 11.5348C53.5394 11.026 53.6594 10.568 53.8994 10.1609C54.1507 9.75387 54.5564 9.4316 55.1163 9.19413C55.6763 8.95667 56.4191 8.83794 57.3447 8.83794H60.0016V10.2458H57.499C56.7676 10.2458 56.2763 10.3645 56.0248 10.6019C55.7735 10.8281 55.6477 11.1108 55.6477 11.45C55.6477 11.8345 55.8019 12.1398 56.1105 12.366C56.4191 12.5921 56.8476 12.7052 57.3962 12.7052C57.9217 12.7052 58.3904 12.5865 58.8018 12.349C59.2245 12.1115 59.5274 11.761 59.7102 11.2974L60.0701 12.5695C59.8644 13.101 59.4932 13.5137 58.9561 13.8077C58.4303 14.1017 57.7618 14.2487 56.9505 14.2487Z" fill="#1B3747"/>
<path d="M48.439 14.2487C47.4791 14.2487 46.622 14.0508 45.8677 13.655C45.125 13.248 44.5421 12.6939 44.1194 11.9928C43.6965 11.2917 43.4852 10.4945 43.4852 9.60121C43.4852 8.69659 43.6965 7.8994 44.1194 7.20962C44.5421 6.50854 45.125 5.96011 45.8677 5.56435C46.622 5.16856 47.4791 4.97068 48.439 4.97068C49.3302 4.97068 50.1131 5.1516 50.7873 5.51346C51.473 5.864 51.9929 6.38415 52.3472 7.07392L50.7016 8.02378C50.4273 7.59409 50.0903 7.27747 49.6902 7.07392C49.3018 6.87039 48.8789 6.76862 48.4219 6.76862C47.8961 6.76862 47.422 6.88169 46.9991 7.10785C46.5762 7.33401 46.2449 7.66194 46.0049 8.09163C45.7649 8.51002 45.6449 9.01321 45.6449 9.60121C45.6449 10.1892 45.7649 10.6981 46.0049 11.1278C46.2449 11.5462 46.5762 11.8684 46.9991 12.0946C47.422 12.3207 47.8961 12.4338 48.4219 12.4338C48.8789 12.4338 49.3018 12.332 49.6902 12.1285C50.0903 11.925 50.4273 11.6083 50.7016 11.1787L52.3472 12.1285C51.9929 12.807 51.473 13.3328 50.7873 13.7059C50.1131 14.0678 49.3302 14.2487 48.439 14.2487Z" fill="#1B3747"/>
<path d="M38.0406 14.2487C37.0236 14.2487 36.1324 14.0508 35.3666 13.655C34.6124 13.248 34.0239 12.6939 33.601 11.9928C33.1898 11.2917 32.9841 10.4945 32.9841 9.60121C32.9841 8.69659 33.184 7.8994 33.5839 7.20962C33.9953 6.50854 34.5553 5.96011 35.2638 5.56435C35.9838 5.16856 36.8007 4.97068 37.7151 4.97068C38.6063 4.97068 39.4005 5.16292 40.0977 5.54738C40.7947 5.93183 41.3432 6.47461 41.7433 7.1757C42.1432 7.87678 42.3431 8.70226 42.3431 9.65209C42.3431 9.74255 42.3374 9.84433 42.3259 9.95742C42.3259 10.0705 42.3203 10.1779 42.3088 10.2797H34.681V8.87186H41.1776L40.3377 9.31287C40.3491 8.79272 40.2405 8.33475 40.012 7.93897C39.7835 7.5432 39.4691 7.23223 39.0691 7.00607C38.6807 6.77993 38.2292 6.66684 37.7151 6.66684C37.1894 6.66684 36.7265 6.77993 36.3266 7.00607C35.938 7.23223 35.6294 7.54885 35.4009 7.95593C35.1837 8.35171 35.0752 8.82097 35.0752 9.36375V9.70298C35.0752 10.2458 35.2009 10.7263 35.4524 11.1447C35.7038 11.5631 36.058 11.8854 36.5152 12.1115C36.9722 12.3377 37.4979 12.4508 38.092 12.4508C38.6063 12.4508 39.0691 12.3716 39.4805 12.2133C39.892 12.055 40.2576 11.8062 40.5776 11.467L41.7262 12.773C41.3148 13.248 40.7946 13.6155 40.1662 13.8756C39.5491 14.1243 38.8406 14.2487 38.0406 14.2487Z" fill="#1B3747"/>
<path d="M26.6207 14.2463C25.7408 14.2463 24.9466 14.0541 24.2379 13.6696C23.5409 13.2739 22.9924 12.7311 22.5925 12.0413C22.1926 11.3515 21.9925 10.5374 21.9925 9.59883C21.9925 8.66027 22.1926 7.84612 22.5925 7.15635C22.9924 6.46657 23.5409 5.92946 24.2379 5.54499C24.9466 5.16052 25.7408 4.96829 26.6207 4.96829C27.3862 4.96829 28.0719 5.13791 28.6775 5.47714C29.2833 5.80508 29.7633 6.30826 30.1175 6.98674C30.4718 7.6652 30.6489 8.53589 30.6489 9.59883C30.6489 10.6504 30.4775 11.5212 30.1346 12.2109C29.7918 12.8894 29.3176 13.3982 28.7118 13.7375C28.1062 14.0767 27.4092 14.2463 26.6207 14.2463ZM26.8778 12.4314C27.3921 12.4314 27.8491 12.3184 28.2492 12.0922C28.6604 11.866 28.9861 11.5381 29.2261 11.1084C29.4776 10.6787 29.6032 10.1755 29.6032 9.59883C29.6032 9.01082 29.4776 8.50763 29.2261 8.08924C28.9861 7.65955 28.6604 7.33162 28.2492 7.10546C27.8491 6.87932 27.3921 6.76623 26.8778 6.76623C26.3635 6.76623 25.9007 6.87932 25.4893 7.10546C25.0894 7.33162 24.7637 7.65955 24.5122 8.08924C24.2722 8.50763 24.1524 9.01082 24.1524 9.59883C24.1524 10.1755 24.2722 10.6787 24.5122 11.1084C24.7637 11.5381 25.0894 11.866 25.4893 12.0922C25.9007 12.3184 26.3635 12.4314 26.8778 12.4314ZM29.6546 14.1276V11.9904L29.7403 9.58187L29.5689 7.17331V1.54204H31.6945V14.1276H29.6546Z" fill="#1B3747"/>
<path fill-rule="evenodd" clip-rule="evenodd" d="M128.094 3.37365C128.508 3.37365 128.844 3.04163 128.844 2.63208C128.844 2.22252 128.508 1.89051 128.094 1.89051C127.681 1.89051 127.345 2.22252 127.345 2.63208C127.345 3.04163 127.681 3.37365 128.094 3.37365ZM128.094 3.52814C128.595 3.52814 129 3.12696 129 2.63208C129 2.13721 128.595 1.73602 128.094 1.73602C127.594 1.73602 127.189 2.13721 127.189 2.63208C127.189 3.12696 127.594 3.52814 128.094 3.52814Z" fill="#1B3747"/>
<path d="M128.043 2.61755C128.08 2.61755 128.112 2.61323 128.139 2.60462C128.167 2.59556 128.191 2.58305 128.209 2.56709C128.228 2.5507 128.243 2.53129 128.252 2.50888C128.262 2.48646 128.266 2.46165 128.266 2.43449C128.266 2.37929 128.248 2.33767 128.212 2.30964C128.176 2.2816 128.121 2.26759 128.048 2.26759H127.911V2.61755H128.043ZM128.473 3.09558H128.361C128.338 3.09558 128.321 3.08674 128.311 3.06906L128.069 2.73787C128.062 2.72752 128.054 2.72019 128.045 2.71587C128.037 2.71113 128.024 2.70876 128.006 2.70876H127.911V3.09558H127.786V2.16863H128.048C128.107 2.16863 128.158 2.17466 128.201 2.18672C128.244 2.19839 128.279 2.21541 128.307 2.23784C128.335 2.26026 128.356 2.28744 128.369 2.31934C128.382 2.35082 128.389 2.38619 128.389 2.42543C128.389 2.4582 128.384 2.48883 128.374 2.51728C128.363 2.54575 128.348 2.57141 128.328 2.59427C128.309 2.61668 128.285 2.63588 128.256 2.65184C128.228 2.66778 128.196 2.67987 128.16 2.68806C128.176 2.69712 128.19 2.71027 128.202 2.72752L128.473 3.09558Z" fill="#1B3747"/>
<defs>
<linearGradient id="paint0_linear_2_741" x1="64.5" y1="0" x2="64.5" y2="17" gradientUnits="userSpaceOnUse">
<stop stop-color="#5185A3"/>
<stop offset="1" stop-color="#3A6075"/>
</linearGradient>
</defs>
</svg>
